# xmcd
#
# Track frame offsets: 
#        150
#        50934
#        73484
#        115033
#        151343
#        179372
#        208801
#        240942
#        285275
#
# Disc length: 3833 seconds
#
# Revision: 0
# Processed by: cddbd v1.5.2PL0 Copyright (c) Steve Scherf et al.
# Submitted via: ExactAudioCopy v0.95b4
#
DISCID=810ef709
DTITLE=Eric Clapton - 1998-10-16 - ECEC - CD2
DYEAR=1998
DGENRE=Blues
TTITLE0=Old Love
TTITLE1=Crossroads
TTITLE2=Have You Ever Loved A Woman
TTITLE3=I Shot The Sheriff
TTITLE4=Wonderful Tonight
TTITLE5=Cocaine
TTITLE6=Everyday I Have The Blues
TTITLE7=Blues Jam
TTITLE8=Crowd
EXTD=
EXTT0=
EXTT1=
EXTT2=
EXTT3=
EXTT4=
EXTT5=
EXTT6=
EXTT7=
EXTT8=
PLAYORDER=
